<svg width="928" height="928" viewBox="0 0 928 928" fill="none" xmlns="http://www.w3.org/2000/svg">
<rect width="927.24" height="927.24" rx="142" fill="#161616"/>
<rect x="79.043" y="79.043" width="385.575" height="385.575" fill="#161616"/>
<path fill-rule="evenodd" clip-rule="evenodd" d="M282.927 185.076H358.585V228.844V260.41C386.218 253.492 406.782 227.353 406.782 198.307C406.782 164.381 378.73 136.879 344.126 136.879C314.155 136.879 289.099 157.51 282.927 185.076Z" fill="white"/>
<path fill-rule="evenodd" clip-rule="evenodd" d="M283.939 269.618C291.504 295.793 315.586 316.172 344.126 316.172C378.73 316.172 406.782 286.213 406.782 252.287C406.782 223.241 386.218 198.903 358.585 192.503V269.618H283.939Z" fill="white"/>
<path d="M136.879 146.519C136.879 141.195 141.195 136.879 146.519 136.879H185.076V397.143C185.076 402.466 180.76 406.782 175.437 406.782H146.519C141.195 406.782 136.879 402.466 136.879 397.143V146.519Z" fill="white"/>
<rect x="358.585" y="194.715" width="48.1969" height="59.7641" fill="white"/>
<path fill-rule="evenodd" clip-rule="evenodd" d="M136.879 185.076V185.076C136.879 158.458 158.458 136.879 185.076 136.879H349.909V185.076H136.879Z" fill="white"/>
<path fill-rule="evenodd" clip-rule="evenodd" d="M136.879 316.171V267.975H349.909V316.171H136.879Z" fill="white"/>
<path d="M332.383 287.643L291.509 313.184L347.165 402.251C348.926 405.069 352.015 406.782 355.339 406.782H389.439C397.01 406.782 401.625 398.455 397.613 392.034L332.383 287.643Z" fill="white"/>
<path fill-rule="evenodd" clip-rule="evenodd" d="M360.513 183.148H329.667V185.076C345.638 185.076 358.585 198.023 358.585 213.994L360.513 213.994V183.148Z" fill="white"/>
<path fill-rule="evenodd" clip-rule="evenodd" d="M360.513 269.903H329.667V267.975C345.638 267.975 358.585 255.028 358.585 239.057L360.513 239.057V269.903Z" fill="white"/>
<path fill-rule="evenodd" clip-rule="evenodd" d="M183.148 177.365C177.824 177.365 173.509 181.68 173.509 187.004V277.614C173.509 282.938 177.824 287.254 183.148 287.254H312.316V267.975H194.715C189.392 267.975 185.076 263.659 185.076 258.336V194.716C185.076 189.392 189.392 185.076 194.715 185.076H312.316V177.365H183.148Z" fill="white"/>
<path d="M790.429 199.535C790.429 234.139 761.996 262.191 726.923 262.191C714.475 262.191 702.864 258.658 693.063 252.552H742.232V185.076H665.117C671.733 157.443 696.894 136.879 726.923 136.879C761.996 136.879 790.429 164.931 790.429 199.535Z" fill="url(#paint0_linear_425_121)"/>
<path d="M790.429 232.309C790.429 266.913 762.377 294.965 727.773 294.965C702.455 294.965 680.644 279.948 670.762 258.336H744.021V177.365H697.634C706.577 172.449 716.848 169.653 727.773 169.653C762.377 169.653 790.429 197.705 790.429 232.309Z" fill="url(#paint1_linear_425_121)"/>
<path d="M790.429 311.352C790.429 345.956 761.996 374.008 726.923 374.008C714.475 374.008 702.864 370.475 693.063 364.369H742.727V294.965H665.612C672.913 268.309 697.597 248.696 726.923 248.696C761.996 248.696 790.429 276.748 790.429 311.352Z" fill="url(#paint2_linear_425_121)"/>
<path d="M790.429 344.126C790.429 378.73 762.377 406.782 727.773 406.782C702.455 406.782 680.644 391.765 670.762 370.152H749.804V289.182H697.634C706.577 284.266 716.848 281.47 727.773 281.47C762.377 281.47 790.429 309.522 790.429 344.126Z" fill="url(#paint3_linear_425_121)"/>
<path d="M742.232 200.499H790.429V229.417H742.232V200.499Z" fill="url(#paint4_linear_425_121)"/>
<path fill-rule="evenodd" clip-rule="evenodd" d="M742.232 312.316H790.429V345.09H742.232V312.316Z" fill="url(#paint5_linear_425_121)"/>
<path d="M578.363 136.879H726.809V185.076H578.363V136.879Z" fill="url(#paint6_linear_425_121)"/>
<path d="M578.363 358.585H732.593V406.782H578.363V358.585Z" fill="url(#paint7_linear_425_121)"/>
<path d="M607.281 256.408C607.281 251.084 611.596 246.768 616.92 246.768H732.593V294.965H616.92C611.596 294.965 607.281 290.649 607.281 285.326V256.408Z" fill="url(#paint8_linear_425_121)"/>
<path d="M597.641 185.101C597.322 185.085 597.001 185.076 596.677 185.076C590.452 185.076 584.952 188.183 581.642 192.93C578.931 196.819 575.099 200.499 570.359 200.499H521.498C520.963 200.499 520.526 200.07 520.526 199.535C521.49 160.014 548.578 136.879 583.182 136.879C612.81 136.879 637.634 157.443 644.162 185.076H597.641V185.101Z" fill="url(#paint9_linear_425_121)"/>
<path d="M597.641 358.56C597.322 358.577 597.001 358.585 596.677 358.585C590.452 358.585 584.952 355.479 581.642 350.731C578.931 346.842 575.099 343.162 570.359 343.162H522.559C521.436 343.162 520.526 344.064 520.526 345.188C520.526 379.792 548.578 406.782 583.182 406.782C612.81 406.782 637.634 386.218 644.162 358.585H597.641V358.56Z" fill="url(#paint10_linear_425_121)"/>
<path d="M742.232 182.184H713.314V185.076C729.285 185.076 742.232 198.023 742.232 213.994V182.184Z" fill="url(#paint11_linear_425_121)"/>
<path d="M742.232 253.516H713.314V246.768C729.285 246.768 742.232 233.821 742.232 217.85V253.516Z" fill="url(#paint12_linear_425_121)"/>
<path d="M713.314 294.965H744.16V323.883H742.232C742.232 307.912 729.285 294.965 713.314 294.965Z" fill="url(#paint13_linear_425_121)"/>
<path d="M744.16 365.333H713.314V358.585C729.285 358.585 742.232 345.638 742.232 329.667H744.16V365.333Z" fill="url(#paint14_linear_425_121)"/>
<path fill-rule="evenodd" clip-rule="evenodd" d="M531.13 200.497C531.059 200.499 530.988 200.499 530.918 200.499C525.594 200.499 521.278 196.184 521.278 190.86C521.278 190.535 521.294 190.213 521.326 189.896H519.562V203.391H531.13V200.497Z" fill="#161616"/>
<path fill-rule="evenodd" clip-rule="evenodd" d="M521.229 354.536C521.122 353.961 521.066 353.368 521.066 352.762C521.066 347.685 524.991 343.525 529.973 343.151L529.973 341.041L516.478 341.041L516.478 354.536L521.229 354.536Z" fill="#161616"/>
<rect x="79.043" y="462.69" width="385.575" height="385.575" fill="#161616"/>
<path d="M133.023 530.166C133.023 524.842 137.339 520.526 142.663 520.526H181.22V790.429H142.663C137.339 790.429 133.023 786.113 133.023 780.79V530.166Z" fill="white"/>
<path d="M335.45 520.526V568.723H133.024V530.166C133.024 524.842 137.339 520.526 142.663 520.526H335.45Z" fill="white"/>
<rect x="331.595" y="631.379" width="48.1969" height="197.607" transform="rotate(90 331.595 631.379)" fill="white"/>
<path d="M341.234 742.232V790.429H142.663C137.339 790.429 133.023 786.113 133.023 780.789V742.232H341.234Z" fill="white"/>
<path fill-rule="evenodd" clip-rule="evenodd" d="M402.926 698.855C402.926 733.459 374.874 761.511 340.27 761.511C322.501 761.511 306.46 754.114 295.057 742.232H359.999V706.566V678.612H280.956C289.373 653.941 312.75 636.199 340.27 636.199C374.874 636.199 402.926 664.251 402.926 698.855Z" fill="white"/>
<path fill-rule="evenodd" clip-rule="evenodd" d="M402.926 727.773C402.926 762.377 374.833 790.429 340.179 790.429C310.508 790.429 285.647 769.865 279.11 742.232H354.683V674.756H306.723C316.407 668.65 327.879 665.117 340.179 665.117C374.833 665.117 402.926 693.169 402.926 727.773Z" fill="white"/>
<path fill-rule="evenodd" clip-rule="evenodd" d="M402.926 583.182C402.926 617.786 374.833 645.838 340.179 645.838C324.932 645.838 310.955 640.408 300.082 631.379H360.081V568.723H279.11C285.647 541.09 310.508 520.526 340.179 520.526C374.833 520.526 402.926 548.578 402.926 583.182Z" fill="white"/>
<path fill-rule="evenodd" clip-rule="evenodd" d="M403.065 615.956C403.065 650.56 375.013 678.612 340.409 678.612C315.091 678.612 293.28 663.595 283.398 641.983H354.729V568.723H299.24C310.25 559.118 324.65 553.3 340.409 553.3C375.013 553.3 403.065 581.352 403.065 615.956Z" fill="white"/>
<path fill-rule="evenodd" clip-rule="evenodd" d="M359.749 566.795H325.047V568.733C325.301 568.727 325.555 568.723 325.811 568.723C341.782 568.723 354.729 581.67 354.729 597.641C354.729 597.641 354.729 597.641 354.729 597.641H359.749V566.795Z" fill="white"/>
<path fill-rule="evenodd" clip-rule="evenodd" d="M325.811 631.379C341.782 631.379 354.729 618.432 354.729 602.461C354.729 602.138 354.724 601.817 354.713 601.497H356.657V634.271H325.811V631.379Z" fill="white"/>
<path fill-rule="evenodd" clip-rule="evenodd" d="M359.749 678.612H325.047V679.586C325.301 679.579 325.555 679.576 325.811 679.576C341.459 679.576 354.205 692.005 354.713 707.53H359.749V678.612Z" fill="white"/>
<path fill-rule="evenodd" clip-rule="evenodd" d="M325.811 742.232C341.782 742.232 354.729 729.285 354.729 713.313L356.657 713.313V746.087H325.811V742.232Z" fill="white"/>
<rect x="354.729" y="584.146" width="48.1969" height="34.7018" fill="white"/>
<rect x="358.585" y="697.891" width="44.3411" height="32.7739" fill="white"/>
<path fill-rule="evenodd" clip-rule="evenodd" d="M246.768 562.939H173.509V636.199H246.768V631.379H190.86C185.536 631.379 181.22 627.063 181.22 621.74V578.362C181.22 573.039 185.536 568.723 190.86 568.723H246.768V562.939Z" fill="white"/>
<path fill-rule="evenodd" clip-rule="evenodd" d="M244.84 672.828H173.509V753.799H244.84V742.232H190.86C185.536 742.232 181.22 737.916 181.22 732.592V689.215C181.22 683.891 185.536 679.576 190.86 679.576H244.84V672.828Z" fill="white"/>
<rect x="462.69" y="462.69" width="385.575" height="385.575" fill="#161616"/>
<path d="M520.526 530.166C520.526 524.842 524.842 520.526 530.166 520.526H559.084C564.408 520.526 568.723 524.842 568.723 530.166V790.429H530.166C524.842 790.429 520.526 786.113 520.526 780.79V530.166Z" fill="white"/>
<path d="M780.934 742.417C786.257 742.417 790.573 746.732 790.573 752.056V780.974C790.573 786.298 786.257 790.613 780.934 790.613H530.31C524.986 790.613 520.67 786.298 520.67 780.974V742.417H780.934Z" fill="white"/>
<path fill-rule="evenodd" clip-rule="evenodd" d="M568.723 697.891H562.94V748.015H614.992V742.425H578.363C573.039 742.425 568.723 738.109 568.723 732.785V697.891Z" fill="white"/>
<defs>
<linearGradient id="paint0_linear_425_121" x1="655.066" y1="137.082" x2="655.066" y2="407.082" gradientUnits="userSpaceOnUse">
<stop stop-color="#B32BD5"/>
<stop offset="1" stop-color="#DA3C8E"/>
</linearGradient>
<linearGradient id="paint1_linear_425_121" x1="655.066" y1="137.082" x2="655.066" y2="407.082" gradientUnits="userSpaceOnUse">
<stop stop-color="#B32BD5"/>
<stop offset="1" stop-color="#DA3C8E"/>
</linearGradient>
<linearGradient id="paint2_linear_425_121" x1="655.066" y1="137.082" x2="655.066" y2="407.082" gradientUnits="userSpaceOnUse">
<stop stop-color="#B32BD5"/>
<stop offset="1" stop-color="#DA3C8E"/>
</linearGradient>
<linearGradient id="paint3_linear_425_121" x1="655.066" y1="137.082" x2="655.066" y2="407.082" gradientUnits="userSpaceOnUse">
<stop stop-color="#B32BD5"/>
<stop offset="1" stop-color="#DA3C8E"/>
</linearGradient>
<linearGradient id="paint4_linear_425_121" x1="655.066" y1="137.082" x2="655.066" y2="407.082" gradientUnits="userSpaceOnUse">
<stop stop-color="#B32BD5"/>
<stop offset="1" stop-color="#DA3C8E"/>
</linearGradient>
<linearGradient id="paint5_linear_425_121" x1="655.066" y1="137.082" x2="655.066" y2="407.082" gradientUnits="userSpaceOnUse">
<stop stop-color="#B32BD5"/>
<stop offset="1" stop-color="#DA3C8E"/>
</linearGradient>
<linearGradient id="paint6_linear_425_121" x1="655.066" y1="137.082" x2="655.066" y2="407.082" gradientUnits="userSpaceOnUse">
<stop stop-color="#B32BD5"/>
<stop offset="1" stop-color="#DA3C8E"/>
</linearGradient>
<linearGradient id="paint7_linear_425_121" x1="655.066" y1="137.082" x2="655.066" y2="407.082" gradientUnits="userSpaceOnUse">
<stop stop-color="#B32BD5"/>
<stop offset="1" stop-color="#DA3C8E"/>
</linearGradient>
<linearGradient id="paint8_linear_425_121" x1="655.066" y1="137.082" x2="655.066" y2="407.082" gradientUnits="userSpaceOnUse">
<stop stop-color="#B32BD5"/>
<stop offset="1" stop-color="#DA3C8E"/>
</linearGradient>
<linearGradient id="paint9_linear_425_121" x1="655.066" y1="137.082" x2="655.066" y2="407.082" gradientUnits="userSpaceOnUse">
<stop stop-color="#B32BD5"/>
<stop offset="1" stop-color="#DA3C8E"/>
</linearGradient>
<linearGradient id="paint10_linear_425_121" x1="655.066" y1="137.082" x2="655.066" y2="407.082" gradientUnits="userSpaceOnUse">
<stop stop-color="#B32BD5"/>
<stop offset="1" stop-color="#DA3C8E"/>
</linearGradient>
<linearGradient id="paint11_linear_425_121" x1="655.066" y1="137.082" x2="655.066" y2="407.082" gradientUnits="userSpaceOnUse">
<stop stop-color="#B32BD5"/>
<stop offset="1" stop-color="#DA3C8E"/>
</linearGradient>
<linearGradient id="paint12_linear_425_121" x1="655.066" y1="137.082" x2="655.066" y2="407.082" gradientUnits="userSpaceOnUse">
<stop stop-color="#B32BD5"/>
<stop offset="1" stop-color="#DA3C8E"/>
</linearGradient>
<linearGradient id="paint13_linear_425_121" x1="655.066" y1="137.082" x2="655.066" y2="407.082" gradientUnits="userSpaceOnUse">
<stop stop-color="#B32BD5"/>
<stop offset="1" stop-color="#DA3C8E"/>
</linearGradient>
<linearGradient id="paint14_linear_425_121" x1="655.066" y1="137.082" x2="655.066" y2="407.082" gradientUnits="userSpaceOnUse">
<stop stop-color="#B32BD5"/>
<stop offset="1" stop-color="#DA3C8E"/>
</linearGradient>
</defs>
</svg>
