<svg width="36" height="36" viewBox="0 0 36 36" fill="none" xmlns="http://www.w3.org/2000/svg">
<mask id="mask0" mask-type="alpha" maskUnits="userSpaceOnUse" x="0" y="0" width="36" height="36">
<rect width="36" height="36" fill="white"/>
</mask>
<g mask="url(#mask0)">
<path d="M4.97918 29.0208C11.6181 35.6597 22.3819 35.6597 29.0208 29.0208C35.6597 22.3819 35.6597 11.6181 29.0208 4.97919C22.3819 -1.65972 11.6181 -1.65972 4.97918 4.97919C-1.65973 11.6181 -1.65973 22.3819 4.97918 29.0208Z" fill="white"/>
<path d="M33.9116 18.6136L26.0411 18.7418L29.1629 21.7639L26.5357 24.4783L18.7801 16.9711L26.2872 9.2155L29.0017 11.8436L25.9801 14.965L33.8501 14.8372C33.3791 11.1402 31.7028 7.57267 28.8236 4.78518C22.088 -1.73411 11.304 -1.55872 4.78515 5.17647C1.99723 8.05611 0.438096 11.6757 0.0877201 15.3866L7.95822 15.2584L4.83637 12.2362L7.46402 9.52222L15.2192 17.029L7.71204 24.7846L4.998 22.157L8.01922 19.0351L0.14917 19.1629C0.620216 22.8599 2.29645 26.4274 5.17611 29.2145C11.9113 35.7342 22.6953 35.5588 29.2146 28.8232C32.002 25.944 33.5616 22.324 33.9116 18.6136Z" fill="#1B345B"/>
</g>
<path d="M23 23H24V36H23V23Z" fill="white"/>
<path d="M36 23V24L23 24L23 23H36Z" fill="white"/>
<path d="M36 24H24V36H36V24Z" fill="#161616"/>
<path d="M30 25.0208H25.0208V30H30V25.0208Z" fill="#161616"/>
<path fill-rule="evenodd" clip-rule="evenodd" d="M29.254 26.5768C29.254 27.0236 28.8915 27.3859 28.4444 27.3859C28.2857 27.3859 28.1377 27.3403 28.0128 27.2614H28.5066V26.5145H27.6372C27.669 26.0967 28.0182 25.7676 28.4444 25.7676C28.8915 25.7676 29.254 26.1299 29.254 26.5768Z" fill="white"/>
<path fill-rule="evenodd" clip-rule="evenodd" d="M29.2531 27.1992C29.2531 27.646 28.8903 28.0083 28.4428 28.0083C28.0163 28.0083 27.6667 27.6792 27.6349 27.2614H28.5288V26.5145H28.0108C28.1358 26.4357 28.284 26.39 28.4428 26.39C28.8903 26.39 29.2531 26.7523 29.2531 27.1992Z" fill="white"/>
<path d="M26.5145 25.7676H25.7676V29.2531H26.5145V25.7676Z" fill="white"/>
<path fill-rule="evenodd" clip-rule="evenodd" d="M28.0845 27.3828L27.4511 27.7786L28.3725 29.2531H29.2532L28.0845 27.3828Z" fill="white"/>
<path d="M25.7676 25.7676V26.5145H28.4689V25.7676H25.7676Z" fill="white"/>
<path d="M25.7676 27.2614V28.0083H28.4564V27.2614H25.7676Z" fill="white"/>
<path d="M29.2531 26.5892H28.5062V27.1867H29.2531V26.5892Z" fill="white"/>
<path fill-rule="evenodd" clip-rule="evenodd" d="M28.6556 26.3651H28.2822V26.5148C28.407 26.5213 28.5062 26.6246 28.5062 26.751H28.6556V26.3651Z" fill="white"/>
<path fill-rule="evenodd" clip-rule="evenodd" d="M28.5062 27.0249C28.5062 27.1555 28.4003 27.2614 28.2697 27.2614H28.5187V27.0249H28.5062Z" fill="white"/>
<path d="M34.9793 25.0208H30V30H34.9793V25.0208Z" fill="#161616"/>
<path fill-rule="evenodd" clip-rule="evenodd" d="M34.2324 28.0705C34.2324 28.5174 33.8701 28.8797 33.4232 28.8797C33.1368 28.8797 32.8851 28.7308 32.7413 28.5062H33.4855V27.8838H32.6358C32.72 27.527 33.0406 27.2614 33.4232 27.2614C33.8701 27.2614 34.2324 27.6237 34.2324 28.0705Z" fill="white"/>
<path fill-rule="evenodd" clip-rule="evenodd" d="M34.2324 28.444C34.2324 28.8908 33.8701 29.2531 33.4232 29.2531C32.9973 29.2531 32.6482 28.924 32.6165 28.5062H33.4855V27.7593H32.9918C33.1167 27.6805 33.2646 27.6349 33.4232 27.6349C33.8701 27.6349 34.2324 27.9971 34.2324 28.444Z" fill="white"/>
<path fill-rule="evenodd" clip-rule="evenodd" d="M34.2324 26.5768C34.2324 27.0236 33.8701 27.3859 33.4232 27.3859C33.1938 27.3859 32.9866 27.2904 32.8394 27.1369H33.4855V26.5145H32.6165C32.6482 26.0967 32.9973 25.7676 33.4232 25.7676C33.8701 25.7676 34.2324 26.1299 34.2324 26.5768Z" fill="white"/>
<path fill-rule="evenodd" clip-rule="evenodd" d="M34.2324 27C34.2324 27.4469 33.8701 27.8091 33.4232 27.8091C33.0963 27.8091 32.8146 27.6152 32.687 27.3361H33.4855V26.4647H32.8164C32.9647 26.2968 33.1816 26.1909 33.4232 26.1909C33.8701 26.1909 34.2324 26.5531 34.2324 27Z" fill="white"/>
<path d="M34.2324 26.5643H33.4855V26.9876H34.2324V26.5643Z" fill="white"/>
<path d="M34.2324 28.0332H33.4855V28.4564H34.2324V28.0332Z" fill="white"/>
<path d="M33.4855 25.7676H31.4938V26.5145H33.4855V25.7676Z" fill="white"/>
<path d="M33.4855 28.5062H31.4938V29.2531H33.4855V28.5062Z" fill="white"/>
<path d="M33.4855 27.1369H31.8672V27.8838H33.4855V27.1369Z" fill="white"/>
<path d="M30.9461 26.5643H30.7469V26.7137H30.9461V26.5643Z" fill="white"/>
<path fill-rule="evenodd" clip-rule="evenodd" d="M31.6929 26.5175C31.5922 26.5334 31.5127 26.613 31.4967 26.7137H30.7584C30.7508 26.6692 30.7469 26.6234 30.7469 26.5768C30.7469 26.1299 31.1092 25.7676 31.556 25.7676C31.9819 25.7676 32.331 26.0967 32.3628 26.5145H31.7303H31.6929V26.5175Z" fill="white"/>
<path fill-rule="evenodd" clip-rule="evenodd" d="M31.6929 28.5033C31.5922 28.4873 31.5127 28.4078 31.4967 28.3071H30.7584C30.7508 28.3516 30.7469 28.3973 30.7469 28.444C30.7469 28.8908 31.1092 29.2531 31.556 29.2531C31.9819 29.2531 32.331 28.924 32.3628 28.5062H31.7303H31.6929V28.5033Z" fill="white"/>
<path d="M30.9958 28.3071H30.7469V28.4564H30.9958V28.3071Z" fill="white"/>
<path fill-rule="evenodd" clip-rule="evenodd" d="M33.5851 26.4025H33.2365V26.5149C33.2406 26.5146 33.2448 26.5145 33.249 26.5145C33.3796 26.5145 33.4855 26.6204 33.4855 26.751H33.5851V26.4025Z" fill="white"/>
<path fill-rule="evenodd" clip-rule="evenodd" d="M33.4855 26.9004C33.4855 27.031 33.3796 27.1369 33.249 27.1369V27.249H33.5975V26.9004H33.4855Z" fill="white"/>
<path fill-rule="evenodd" clip-rule="evenodd" d="M33.5851 27.7718H33.2365V27.8841C33.2406 27.8839 33.2448 27.8838 33.249 27.8838C33.3796 27.8838 33.4855 27.9897 33.4855 28.1203H33.5851V27.7718Z" fill="white"/>
<path fill-rule="evenodd" clip-rule="evenodd" d="M33.4855 28.2697C33.4855 28.4003 33.3796 28.5062 33.249 28.5062V28.6183H33.5975V28.2697H33.4855Z" fill="white"/>
<path d="M30 30H25.0208V34.9793H30V30Z" fill="#161616"/>
<path d="M26.5145 30.7469H25.7676V34.2324H26.5145V30.7469Z" fill="white"/>
<path d="M28.3817 31.4938V30.7469H25.7676V31.4938H28.3817Z" fill="white"/>
<path d="M28.1577 32.8631V32.1162H25.7676V32.8631H28.1577Z" fill="white"/>
<path d="M28.4564 34.2324V33.4855H25.7676V34.2324H28.4564Z" fill="white"/>
<path fill-rule="evenodd" clip-rule="evenodd" d="M29.2531 33.0498C29.2531 33.4967 28.8909 33.8589 28.444 33.8589C28.1575 33.8589 27.9058 33.7101 27.7621 33.4855H28.5095V32.8631H27.6565C27.7408 32.5062 28.0614 32.2407 28.444 32.2407C28.8909 32.2407 29.2531 32.6029 29.2531 33.0498Z" fill="white"/>
<path fill-rule="evenodd" clip-rule="evenodd" d="M29.2531 33.4232C29.2531 33.8701 28.8903 34.2324 28.4428 34.2324C28.0163 34.2324 27.6667 33.9033 27.6349 33.4855H28.5051V32.7386H28.0108C28.1358 32.6597 28.284 32.6141 28.4428 32.6141C28.8903 32.6141 29.2531 32.9764 29.2531 33.4232Z" fill="white"/>
<path fill-rule="evenodd" clip-rule="evenodd" d="M29.2531 31.556C29.2531 32.0029 28.8903 32.3651 28.4428 32.3651C28.213 32.3651 28.0055 32.2696 27.8581 32.1162H28.5051V31.4938H27.6349C27.6667 31.076 28.0163 30.7469 28.4428 30.7469C28.8903 30.7469 29.2531 31.1092 29.2531 31.556Z" fill="white"/>
<path fill-rule="evenodd" clip-rule="evenodd" d="M29.2549 31.9792C29.2549 32.4261 28.8926 32.7884 28.4458 32.7884C28.1188 32.7884 27.8372 32.5945 27.7095 32.3153H28.508V31.444H27.839C27.9873 31.276 28.2041 31.1701 28.4458 31.1701C28.8926 31.1701 29.2549 31.5324 29.2549 31.9792Z" fill="white"/>
<path fill-rule="evenodd" clip-rule="evenodd" d="M28.6058 31.3942H28.2573V31.4941C28.2614 31.4939 28.2655 31.4938 28.2697 31.4938C28.4003 31.4938 28.5062 31.5997 28.5062 31.7303C28.5062 31.7345 28.5061 31.7386 28.5059 31.7427H28.6058V31.3942Z" fill="white"/>
<path fill-rule="evenodd" clip-rule="evenodd" d="M28.5062 31.8797C28.5062 32.0103 28.4003 32.1162 28.2697 32.1162C28.2655 32.1162 28.2614 32.1161 28.2573 32.1159V32.2158H28.6058V31.8672H28.5059C28.5061 31.8714 28.5062 31.8755 28.5062 31.8797Z" fill="white"/>
<path fill-rule="evenodd" clip-rule="evenodd" d="M28.6058 32.7635H28.2573V32.8634C28.2614 32.8632 28.2655 32.8631 28.2697 32.8631C28.4003 32.8631 28.5062 32.969 28.5062 33.0996C28.5062 33.1038 28.5061 33.1079 28.5059 33.112H28.6058V32.7635Z" fill="white"/>
<path fill-rule="evenodd" clip-rule="evenodd" d="M28.5062 33.249C28.5062 33.3796 28.4003 33.4855 28.2697 33.4855C28.2655 33.4855 28.2614 33.4854 28.2573 33.4852V33.5851H28.6058V33.2365H28.5059C28.5061 33.2406 28.5062 33.2448 28.5062 33.249Z" fill="white"/>
<path d="M29.2531 31.5685H28.5062V32.0166H29.2531V31.5685Z" fill="white"/>
<path d="M29.2531 33.0373H28.5062V33.4606H29.2531V33.0373Z" fill="white"/>
<path d="M34.9793 30H30V34.9793H34.9793V30Z" fill="#161616"/>
<path d="M31.4938 30.7469H30.7469V34.2324H31.4938V30.7469Z" fill="white"/>
<path d="M34.2342 34.2348V33.4879H30.7487V34.2348H34.2342Z" fill="white"/>
</svg>
