<svg width="57" height="57" viewBox="0 0 57 57" fill="none" xmlns="http://www.w3.org/2000/svg">
<g clip-path="url(#clip0)">
<path d="M8.34747 48.6527C19.4774 59.7826 37.5227 59.7826 48.6527 48.6527C59.7823 37.5227 59.7823 19.4774 48.6527 8.34745C37.5227 -2.78248 19.4774 -2.78248 8.34747 8.34745C-2.78249 19.4774 -2.78249 37.5227 8.34747 48.6527Z" fill="white"/>
<path d="M56.8518 31.2051L43.657 31.42L48.8907 36.4865L44.4864 41.0372L31.4842 28.4517L44.0699 15.4496L48.6207 19.8555L43.5548 25.0884L56.7489 24.8743C55.9591 18.6762 53.149 12.6954 48.3221 8.02225C37.0297 -2.90713 18.9508 -2.61309 8.0222 8.67825C3.34831 13.5059 0.734472 19.574 0.147079 25.7952L13.3418 25.5802L8.10805 20.5137L12.5132 15.9638L25.5146 28.5487L12.929 41.5509L8.37902 37.1455L13.444 31.9118L0.250097 32.1261C1.03979 38.324 3.84994 44.3047 8.67763 48.9773C19.969 59.9074 38.0479 59.6135 48.9773 48.3214C53.6506 43.4942 56.2651 37.4255 56.8518 31.2051Z" fill="#1B345B"/>
</g>
<defs>
<clipPath id="clip0">
<rect width="57" height="57" fill="white"/>
</clipPath>
</defs>
</svg>
