<svg width="60" height="60" viewBox="0 0 60 60" fill="none" xmlns="http://www.w3.org/2000/svg">
<path d="M60 0H0V60H60V0Z" fill="white"/>
<mask id="mask0" mask-type="alpha" maskUnits="userSpaceOnUse" x="0" y="0" width="60" height="60">
<path d="M60 0H0V60H60V0Z" fill="white"/>
</mask>
<g mask="url(#mask0)">
<path d="M8.29864 48.368C19.3635 59.4328 37.3032 59.4328 48.368 48.368C59.4328 37.3032 59.4328 19.3635 48.368 8.29864C37.3032 -2.76621 19.3635 -2.76621 8.29864 8.29864C-2.76621 19.3635 -2.76621 37.3032 8.29864 48.368Z" fill="white"/>
<path d="M56.5193 31.0227L43.4018 31.2363L48.6048 36.2732L44.2261 40.7972L31.3001 28.2852L43.812 15.3592L48.3361 19.7393L43.3001 24.9417L56.4168 24.7287C55.6318 18.567 52.838 12.6211 48.0393 7.97531C36.8133 -2.89017 18.84 -2.59786 7.97525 8.62746C3.3287 13.4269 0.730138 19.4595 0.146179 25.6443L13.2637 25.4307L8.0606 20.3937L12.44 15.8704L25.3653 28.3817L12.8534 41.3077L8.32998 36.9283L13.3653 31.7252L0.248595 31.9382C1.03367 38.0998 3.82739 44.0457 8.62683 48.6908C19.8521 59.557 37.8255 59.2647 48.691 48.0387C53.3366 43.24 55.936 37.2067 56.5193 31.0227Z" fill="#1B345B"/>
<path d="M38.3333 38.3333H40V60H38.3333V38.3333Z" fill="white"/>
<path d="M60 38.3333V40H38.3333V38.3333H60Z" fill="white"/>
<path d="M60 40H40V60H60V40Z" fill="#161616"/>
<path d="M50 41.7014H41.7014V50H50V41.7014Z" fill="#161616"/>
<path fill-rule="evenodd" clip-rule="evenodd" d="M48.7567 44.2946C48.7567 45.0393 48.1525 45.6432 47.4073 45.6432C47.1428 45.6432 46.8962 45.5671 46.688 45.4357H47.511V44.1908H46.062C46.115 43.4945 46.697 42.946 47.4073 42.946C48.1525 42.946 48.7567 43.5498 48.7567 44.2946Z" fill="white"/>
<path fill-rule="evenodd" clip-rule="evenodd" d="M48.7552 45.332C48.7552 46.0767 48.1505 46.6805 47.4047 46.6805C46.6938 46.6805 46.1112 46.132 46.0582 45.4357H47.548V44.1908H46.6847C46.893 44.0595 47.14 43.9833 47.4047 43.9833C48.1505 43.9833 48.7552 44.5872 48.7552 45.332Z" fill="white"/>
<path d="M44.1908 42.946H42.946V48.7551H44.1908V42.946Z" fill="white"/>
<path fill-rule="evenodd" clip-rule="evenodd" d="M46.8075 45.638L45.7518 46.2977L47.2875 48.7552H48.7553L46.8075 45.638Z" fill="white"/>
<path d="M42.946 42.946V44.1908H47.4482V42.946H42.946Z" fill="white"/>
<path d="M42.946 45.4357V46.6805H47.4273V45.4357H42.946Z" fill="white"/>
<path d="M48.7551 44.3153H47.5103V45.3111H48.7551V44.3153Z" fill="white"/>
<path fill-rule="evenodd" clip-rule="evenodd" d="M47.7593 43.9418H47.137V44.1913C47.345 44.2022 47.5103 44.3743 47.5103 44.585H47.7593V43.9418Z" fill="white"/>
<path fill-rule="evenodd" clip-rule="evenodd" d="M47.5103 45.0415C47.5103 45.2592 47.3338 45.4357 47.1162 45.4357H47.5312V45.0415H47.5103Z" fill="white"/>
<path d="M58.2988 41.7014H50V50H58.2988V41.7014Z" fill="#161616"/>
<path fill-rule="evenodd" clip-rule="evenodd" d="M57.054 46.7842C57.054 47.529 56.4502 48.1328 55.7053 48.1328C55.228 48.1328 54.8085 47.8847 54.5688 47.5103H55.8092V46.473H54.393C54.5333 45.8783 55.0677 45.4357 55.7053 45.4357C56.4502 45.4357 57.054 46.0395 57.054 46.7842Z" fill="white"/>
<path fill-rule="evenodd" clip-rule="evenodd" d="M57.054 47.4067C57.054 48.1513 56.4502 48.7552 55.7053 48.7552C54.9955 48.7552 54.4137 48.2067 54.3608 47.5103H55.8092V46.2655H54.9863C55.1945 46.1342 55.441 46.0582 55.7053 46.0582C56.4502 46.0582 57.054 46.6618 57.054 47.4067Z" fill="white"/>
<path fill-rule="evenodd" clip-rule="evenodd" d="M57.054 44.2946C57.054 45.0393 56.4502 45.6432 55.7053 45.6432C55.323 45.6432 54.9777 45.484 54.7323 45.2281H55.8092V44.1908H54.3608C54.4137 43.4945 54.9955 42.946 55.7053 42.946C56.4502 42.946 57.054 43.5498 57.054 44.2946Z" fill="white"/>
<path fill-rule="evenodd" clip-rule="evenodd" d="M57.054 45C57.054 45.7448 56.4502 46.3485 55.7053 46.3485C55.1605 46.3485 54.691 46.0253 54.4783 45.5602H55.8092V44.1078H54.694C54.9412 43.828 55.3027 43.6515 55.7053 43.6515C56.4502 43.6515 57.054 44.2552 57.054 45Z" fill="white"/>
<path d="M57.054 44.2739H55.8092V44.9794H57.054V44.2739Z" fill="white"/>
<path d="M57.054 46.722H55.8092V47.4273H57.054V46.722Z" fill="white"/>
<path d="M55.8092 42.946H52.4897V44.1908H55.8092V42.946Z" fill="white"/>
<path d="M55.8092 47.5104H52.4897V48.7552H55.8092V47.5104Z" fill="white"/>
<path d="M55.8092 45.2281H53.112V46.473H55.8092V45.2281Z" fill="white"/>
<path d="M51.5768 44.2739H51.2448V44.5229H51.5768V44.2739Z" fill="white"/>
<path fill-rule="evenodd" clip-rule="evenodd" d="M52.8215 44.1958C52.6536 44.2223 52.5211 44.355 52.4945 44.5228H51.264C51.2513 44.4487 51.2448 44.3723 51.2448 44.2947C51.2448 43.5498 51.8486 42.946 52.5933 42.946C53.3031 42.946 53.885 43.4945 53.938 44.1908H52.8838H52.8215V44.1958Z" fill="white"/>
<path fill-rule="evenodd" clip-rule="evenodd" d="M52.8215 47.5055C52.6536 47.4789 52.5211 47.3464 52.4945 47.1785H51.264C51.2513 47.2527 51.2448 47.3289 51.2448 47.4067C51.2448 48.1514 51.8486 48.7552 52.5933 48.7552C53.3031 48.7552 53.885 48.2067 53.938 47.5104H52.8838H52.8215V47.5055Z" fill="white"/>
<path d="M51.6596 47.1785H51.2448V47.4274H51.6596V47.1785Z" fill="white"/>
<path fill-rule="evenodd" clip-rule="evenodd" d="M55.9752 44.0042H55.3942V44.1915C55.401 44.191 55.408 44.1909 55.415 44.1909C55.6327 44.1909 55.8092 44.3674 55.8092 44.585H55.9752V44.0042Z" fill="white"/>
<path fill-rule="evenodd" clip-rule="evenodd" d="M55.8092 44.834C55.8092 45.0517 55.6327 45.2282 55.415 45.2282V45.415H55.9958V44.834H55.8092Z" fill="white"/>
<path fill-rule="evenodd" clip-rule="evenodd" d="M55.9752 46.2863H55.3942V46.4735C55.401 46.4732 55.408 46.473 55.415 46.473C55.6327 46.473 55.8092 46.6495 55.8092 46.8671H55.9752V46.2863Z" fill="white"/>
<path fill-rule="evenodd" clip-rule="evenodd" d="M55.8092 47.1161C55.8092 47.3338 55.6327 47.5103 55.415 47.5103V47.6971H55.9958V47.1161H55.8092Z" fill="white"/>
<path d="M50 50H41.7014V58.2988H50V50Z" fill="#161616"/>
<path d="M44.1908 51.2448H42.946V57.054H44.1908V51.2448Z" fill="white"/>
<path d="M47.3028 52.4896V51.2448H42.946V52.4896H47.3028Z" fill="white"/>
<path d="M46.9295 54.7718V53.527H42.946V54.7718H46.9295Z" fill="white"/>
<path d="M47.4273 57.054V55.8091H42.946V57.054H47.4273Z" fill="white"/>
<path fill-rule="evenodd" clip-rule="evenodd" d="M48.7552 55.083C48.7552 55.8278 48.1515 56.4315 47.4067 56.4315C46.9292 56.4315 46.5097 56.1835 46.2702 55.8092H47.5158V54.7718H46.0942C46.2347 54.177 46.769 53.7345 47.4067 53.7345C48.1515 53.7345 48.7552 54.3382 48.7552 55.083Z" fill="white"/>
<path fill-rule="evenodd" clip-rule="evenodd" d="M48.7552 55.7053C48.7552 56.4501 48.1505 57.054 47.4047 57.054C46.6938 57.054 46.1112 56.5055 46.0582 55.8091H47.5085V54.5643H46.6847C46.893 54.4328 47.14 54.3568 47.4047 54.3568C48.1505 54.3568 48.7552 54.9606 48.7552 55.7053Z" fill="white"/>
<path fill-rule="evenodd" clip-rule="evenodd" d="M48.7552 52.5933C48.7552 53.3381 48.1505 53.9418 47.4047 53.9418C47.0217 53.9418 46.6758 53.7826 46.4302 53.527H47.5085V52.4896H46.0582C46.1112 51.7933 46.6938 51.2448 47.4047 51.2448C48.1505 51.2448 48.7552 51.8486 48.7552 52.5933Z" fill="white"/>
<path fill-rule="evenodd" clip-rule="evenodd" d="M48.7582 53.2987C48.7582 54.0435 48.1543 54.6474 47.4097 54.6474C46.8647 54.6474 46.3953 54.3242 46.1825 53.8589H47.5133V52.4067H46.3983C46.6455 52.1267 47.0068 51.9502 47.4097 51.9502C48.1543 51.9502 48.7582 52.554 48.7582 53.2987Z" fill="white"/>
<path fill-rule="evenodd" clip-rule="evenodd" d="M47.6763 52.3237H47.0955V52.4902C47.1023 52.4898 47.1092 52.4897 47.1162 52.4897C47.3338 52.4897 47.5103 52.6662 47.5103 52.8838C47.5103 52.8908 47.5102 52.8977 47.5098 52.9045H47.6763V52.3237Z" fill="white"/>
<path fill-rule="evenodd" clip-rule="evenodd" d="M47.5103 53.1328C47.5103 53.3505 47.3338 53.527 47.1162 53.527C47.1092 53.527 47.1023 53.5268 47.0955 53.5265V53.693H47.6763V53.112H47.5098C47.5102 53.119 47.5103 53.1258 47.5103 53.1328Z" fill="white"/>
<path fill-rule="evenodd" clip-rule="evenodd" d="M47.6763 54.6058H47.0955V54.7723C47.1023 54.772 47.1092 54.7718 47.1162 54.7718C47.3338 54.7718 47.5103 54.9483 47.5103 55.166C47.5103 55.173 47.5102 55.1798 47.5098 55.1867H47.6763V54.6058Z" fill="white"/>
<path fill-rule="evenodd" clip-rule="evenodd" d="M47.5103 55.415C47.5103 55.6327 47.3338 55.8092 47.1162 55.8092C47.1092 55.8092 47.1023 55.809 47.0955 55.8087V55.9752H47.6763V55.3942H47.5098C47.5102 55.401 47.5103 55.408 47.5103 55.415Z" fill="white"/>
<path d="M48.7551 52.6141H47.5103V53.361H48.7551V52.6141Z" fill="white"/>
<path d="M48.7551 55.0621H47.5103V55.7676H48.7551V55.0621Z" fill="white"/>
<path d="M58.2988 50H50V58.2988H58.2988V50Z" fill="#161616"/>
<path d="M52.4896 51.2448H51.2448V57.054H52.4896V51.2448Z" fill="white"/>
<path d="M57.057 57.058V55.8132H51.2478V57.058H57.057Z" fill="white"/>
</g>
</svg>
